<mxfile host="app.diagrams.net" modified="2022-04-25T13:09:26.335Z" agent="5.0 (Windows NT 10.0; Win64; x64) AppleWebKit/537.36 (KHTML, like Gecko) Chrome/100.0.4896.127 Safari/537.36" etag="3Vif37_buDsGSYeyTUq7" version="17.4.6" type="github">
  <diagram id="cBzeF5r7LjMb-VeZwdd6" name="第 1 页">
    <mxGraphModel dx="2595" dy="1348" grid="1" gridSize="10" guides="1" tooltips="1" connect="1" arrows="1" fold="1" page="1" pageScale="1" pageWidth="827" pageHeight="1169" math="0" shadow="0">
      <root>
        <mxCell id="0" />
        <mxCell id="1" parent="0" />
        <mxCell id="qnmHmgNk629mdP60JGwh-49" value="" style="group" vertex="1" connectable="0" parent="1">
          <mxGeometry x="20" y="90" width="1000" height="740" as="geometry" />
        </mxCell>
        <mxCell id="qnmHmgNk629mdP60JGwh-41" value="" style="rounded=0;whiteSpace=wrap;html=1;fontSize=20;" vertex="1" parent="qnmHmgNk629mdP60JGwh-49">
          <mxGeometry y="300" width="1000" height="400" as="geometry" />
        </mxCell>
        <mxCell id="qnmHmgNk629mdP60JGwh-40" value="" style="rounded=0;whiteSpace=wrap;html=1;fontSize=20;" vertex="1" parent="qnmHmgNk629mdP60JGwh-49">
          <mxGeometry width="1000" height="300" as="geometry" />
        </mxCell>
        <mxCell id="qnmHmgNk629mdP60JGwh-42" value="" style="rounded=0;whiteSpace=wrap;html=1;fontSize=20;" vertex="1" parent="qnmHmgNk629mdP60JGwh-49">
          <mxGeometry x="220" y="50" width="710" height="100" as="geometry" />
        </mxCell>
        <mxCell id="qnmHmgNk629mdP60JGwh-43" value="" style="rounded=0;whiteSpace=wrap;html=1;fontSize=20;" vertex="1" parent="qnmHmgNk629mdP60JGwh-49">
          <mxGeometry x="220" y="170" width="710" height="100" as="geometry" />
        </mxCell>
        <mxCell id="qnmHmgNk629mdP60JGwh-44" value="" style="rounded=0;whiteSpace=wrap;html=1;fontSize=20;" vertex="1" parent="qnmHmgNk629mdP60JGwh-49">
          <mxGeometry x="220" y="310" width="710" height="100" as="geometry" />
        </mxCell>
        <mxCell id="qnmHmgNk629mdP60JGwh-45" value="" style="rounded=0;whiteSpace=wrap;html=1;fontSize=20;" vertex="1" parent="qnmHmgNk629mdP60JGwh-49">
          <mxGeometry x="220" y="440" width="710" height="100" as="geometry" />
        </mxCell>
        <mxCell id="qnmHmgNk629mdP60JGwh-46" value="" style="rounded=0;whiteSpace=wrap;html=1;fontSize=20;" vertex="1" parent="qnmHmgNk629mdP60JGwh-49">
          <mxGeometry x="220" y="570" width="710" height="100" as="geometry" />
        </mxCell>
        <mxCell id="qnmHmgNk629mdP60JGwh-4" value="&lt;font style=&quot;font-size: 20px&quot;&gt;用户&lt;/font&gt;" style="rounded=0;whiteSpace=wrap;html=1;flipH=1;" vertex="1" parent="qnmHmgNk629mdP60JGwh-49">
          <mxGeometry x="70" y="70" width="120" height="60" as="geometry" />
        </mxCell>
        <mxCell id="qnmHmgNk629mdP60JGwh-5" value="&lt;span style=&quot;font-size: 20px&quot;&gt;患者&lt;/span&gt;" style="rounded=0;whiteSpace=wrap;html=1;flipH=1;" vertex="1" parent="qnmHmgNk629mdP60JGwh-49">
          <mxGeometry x="243" y="70" width="120" height="60" as="geometry" />
        </mxCell>
        <mxCell id="qnmHmgNk629mdP60JGwh-50" value="" style="edgeStyle=orthogonalEdgeStyle;rounded=0;orthogonalLoop=1;jettySize=auto;html=1;fontSize=20;startArrow=classicThin;startFill=0;endArrow=classicThin;endFill=0;strokeWidth=3;" edge="1" parent="qnmHmgNk629mdP60JGwh-49" source="qnmHmgNk629mdP60JGwh-6" target="qnmHmgNk629mdP60JGwh-15">
          <mxGeometry relative="1" as="geometry" />
        </mxCell>
        <mxCell id="qnmHmgNk629mdP60JGwh-6" value="&lt;span style=&quot;font-size: 20px&quot;&gt;医生&lt;/span&gt;" style="rounded=0;whiteSpace=wrap;html=1;flipH=1;" vertex="1" parent="qnmHmgNk629mdP60JGwh-49">
          <mxGeometry x="415" y="70" width="120" height="60" as="geometry" />
        </mxCell>
        <mxCell id="qnmHmgNk629mdP60JGwh-51" value="" style="edgeStyle=orthogonalEdgeStyle;rounded=0;orthogonalLoop=1;jettySize=auto;html=1;fontSize=20;startArrow=classicThin;startFill=0;endArrow=classicThin;endFill=0;strokeWidth=3;" edge="1" parent="qnmHmgNk629mdP60JGwh-49" source="qnmHmgNk629mdP60JGwh-7" target="qnmHmgNk629mdP60JGwh-14">
          <mxGeometry relative="1" as="geometry" />
        </mxCell>
        <mxCell id="qnmHmgNk629mdP60JGwh-7" value="&lt;span style=&quot;font-size: 20px&quot;&gt;药剂师&lt;/span&gt;" style="rounded=0;whiteSpace=wrap;html=1;flipH=1;" vertex="1" parent="qnmHmgNk629mdP60JGwh-49">
          <mxGeometry x="588" y="70" width="120" height="60" as="geometry" />
        </mxCell>
        <mxCell id="qnmHmgNk629mdP60JGwh-52" value="" style="edgeStyle=orthogonalEdgeStyle;rounded=0;orthogonalLoop=1;jettySize=auto;html=1;fontSize=20;startArrow=classicThin;startFill=0;endArrow=classicThin;endFill=0;strokeWidth=3;" edge="1" parent="qnmHmgNk629mdP60JGwh-49" source="qnmHmgNk629mdP60JGwh-8" target="qnmHmgNk629mdP60JGwh-10">
          <mxGeometry relative="1" as="geometry" />
        </mxCell>
        <mxCell id="qnmHmgNk629mdP60JGwh-8" value="&lt;span style=&quot;font-size: 20px&quot;&gt;后台人员&lt;/span&gt;" style="rounded=0;whiteSpace=wrap;html=1;flipH=1;" vertex="1" parent="qnmHmgNk629mdP60JGwh-49">
          <mxGeometry x="760" y="70" width="120" height="60" as="geometry" />
        </mxCell>
        <mxCell id="qnmHmgNk629mdP60JGwh-9" value="&lt;font style=&quot;font-size: 20px&quot;&gt;表示层&lt;br&gt;&lt;/font&gt;" style="rounded=0;whiteSpace=wrap;html=1;flipH=1;" vertex="1" parent="qnmHmgNk629mdP60JGwh-49">
          <mxGeometry x="70" y="200" width="120" height="60" as="geometry" />
        </mxCell>
        <mxCell id="qnmHmgNk629mdP60JGwh-56" value="" style="edgeStyle=orthogonalEdgeStyle;rounded=0;orthogonalLoop=1;jettySize=auto;html=1;fontSize=20;startArrow=classicThin;startFill=0;endArrow=classicThin;endFill=0;strokeWidth=3;" edge="1" parent="qnmHmgNk629mdP60JGwh-49" source="qnmHmgNk629mdP60JGwh-10" target="qnmHmgNk629mdP60JGwh-22">
          <mxGeometry relative="1" as="geometry" />
        </mxCell>
        <mxCell id="qnmHmgNk629mdP60JGwh-10" value="&lt;font style=&quot;font-size: 20px&quot;&gt;管理界面&lt;/font&gt;" style="rounded=0;whiteSpace=wrap;html=1;flipH=1;" vertex="1" parent="qnmHmgNk629mdP60JGwh-49">
          <mxGeometry x="760" y="200" width="120" height="60" as="geometry" />
        </mxCell>
        <mxCell id="qnmHmgNk629mdP60JGwh-53" value="" style="edgeStyle=orthogonalEdgeStyle;rounded=0;orthogonalLoop=1;jettySize=auto;html=1;fontSize=20;startArrow=classicThin;startFill=0;endArrow=classicThin;endFill=0;strokeWidth=3;" edge="1" parent="qnmHmgNk629mdP60JGwh-49" source="qnmHmgNk629mdP60JGwh-12" target="qnmHmgNk629mdP60JGwh-19">
          <mxGeometry relative="1" as="geometry" />
        </mxCell>
        <mxCell id="qnmHmgNk629mdP60JGwh-67" style="edgeStyle=none;rounded=0;orthogonalLoop=1;jettySize=auto;html=1;fontSize=20;startArrow=classicThin;startFill=0;endArrow=classicThin;endFill=0;strokeWidth=3;" edge="1" parent="qnmHmgNk629mdP60JGwh-49" source="qnmHmgNk629mdP60JGwh-12" target="qnmHmgNk629mdP60JGwh-6">
          <mxGeometry relative="1" as="geometry" />
        </mxCell>
        <mxCell id="qnmHmgNk629mdP60JGwh-12" value="&lt;font style=&quot;font-size: 20px&quot;&gt;患者界面&lt;br&gt;&lt;/font&gt;" style="rounded=0;whiteSpace=wrap;html=1;flipH=1;" vertex="1" parent="qnmHmgNk629mdP60JGwh-49">
          <mxGeometry x="243" y="200" width="120" height="60" as="geometry" />
        </mxCell>
        <mxCell id="qnmHmgNk629mdP60JGwh-48" style="edgeStyle=orthogonalEdgeStyle;rounded=0;orthogonalLoop=1;jettySize=auto;html=1;entryX=0.5;entryY=0;entryDx=0;entryDy=0;fontSize=20;endArrow=classicThin;endFill=0;strokeWidth=3;startArrow=classicThin;startFill=0;" edge="1" parent="qnmHmgNk629mdP60JGwh-49" source="qnmHmgNk629mdP60JGwh-5" target="qnmHmgNk629mdP60JGwh-12">
          <mxGeometry relative="1" as="geometry" />
        </mxCell>
        <mxCell id="qnmHmgNk629mdP60JGwh-55" value="" style="edgeStyle=orthogonalEdgeStyle;rounded=0;orthogonalLoop=1;jettySize=auto;html=1;fontSize=20;startArrow=classicThin;startFill=0;endArrow=classicThin;endFill=0;strokeWidth=3;" edge="1" parent="qnmHmgNk629mdP60JGwh-49" source="qnmHmgNk629mdP60JGwh-14" target="qnmHmgNk629mdP60JGwh-21">
          <mxGeometry relative="1" as="geometry" />
        </mxCell>
        <mxCell id="qnmHmgNk629mdP60JGwh-14" value="&lt;font style=&quot;font-size: 20px&quot;&gt;配药界面&lt;br&gt;&lt;/font&gt;" style="rounded=0;whiteSpace=wrap;html=1;flipH=1;" vertex="1" parent="qnmHmgNk629mdP60JGwh-49">
          <mxGeometry x="588" y="200" width="120" height="60" as="geometry" />
        </mxCell>
        <mxCell id="qnmHmgNk629mdP60JGwh-54" value="" style="edgeStyle=orthogonalEdgeStyle;rounded=0;orthogonalLoop=1;jettySize=auto;html=1;fontSize=20;startArrow=classicThin;startFill=0;endArrow=classicThin;endFill=0;strokeWidth=3;" edge="1" parent="qnmHmgNk629mdP60JGwh-49" source="qnmHmgNk629mdP60JGwh-15" target="qnmHmgNk629mdP60JGwh-20">
          <mxGeometry relative="1" as="geometry" />
        </mxCell>
        <mxCell id="qnmHmgNk629mdP60JGwh-68" style="edgeStyle=none;rounded=0;orthogonalLoop=1;jettySize=auto;html=1;fontSize=20;startArrow=classicThin;startFill=0;endArrow=classicThin;endFill=0;strokeWidth=3;" edge="1" parent="qnmHmgNk629mdP60JGwh-49" source="qnmHmgNk629mdP60JGwh-15" target="qnmHmgNk629mdP60JGwh-7">
          <mxGeometry relative="1" as="geometry" />
        </mxCell>
        <mxCell id="qnmHmgNk629mdP60JGwh-15" value="&lt;font style=&quot;font-size: 20px&quot;&gt;处方界面&lt;br&gt;&lt;/font&gt;" style="rounded=0;whiteSpace=wrap;html=1;flipH=1;" vertex="1" parent="qnmHmgNk629mdP60JGwh-49">
          <mxGeometry x="415" y="200" width="120" height="60" as="geometry" />
        </mxCell>
        <mxCell id="qnmHmgNk629mdP60JGwh-16" value="&lt;font style=&quot;font-size: 20px&quot;&gt;控制器层&lt;br&gt;&lt;/font&gt;" style="rounded=0;whiteSpace=wrap;html=1;flipH=1;" vertex="1" parent="qnmHmgNk629mdP60JGwh-49">
          <mxGeometry x="70" y="330" width="120" height="60" as="geometry" />
        </mxCell>
        <mxCell id="qnmHmgNk629mdP60JGwh-57" value="" style="edgeStyle=orthogonalEdgeStyle;rounded=0;orthogonalLoop=1;jettySize=auto;html=1;fontSize=20;startArrow=classicThin;startFill=0;endArrow=classicThin;endFill=0;strokeWidth=3;" edge="1" parent="qnmHmgNk629mdP60JGwh-49" source="qnmHmgNk629mdP60JGwh-19" target="qnmHmgNk629mdP60JGwh-24">
          <mxGeometry relative="1" as="geometry" />
        </mxCell>
        <mxCell id="qnmHmgNk629mdP60JGwh-70" style="edgeStyle=none;rounded=0;orthogonalLoop=1;jettySize=auto;html=1;fontSize=20;startArrow=classicThin;startFill=0;endArrow=classicThin;endFill=0;strokeWidth=3;" edge="1" parent="qnmHmgNk629mdP60JGwh-49" source="qnmHmgNk629mdP60JGwh-19" target="qnmHmgNk629mdP60JGwh-15">
          <mxGeometry relative="1" as="geometry" />
        </mxCell>
        <mxCell id="qnmHmgNk629mdP60JGwh-19" value="&lt;font style=&quot;font-size: 20px&quot;&gt;患者查询&lt;br&gt;&lt;/font&gt;" style="rounded=0;whiteSpace=wrap;html=1;flipH=1;" vertex="1" parent="qnmHmgNk629mdP60JGwh-49">
          <mxGeometry x="243" y="330" width="120" height="60" as="geometry" />
        </mxCell>
        <mxCell id="qnmHmgNk629mdP60JGwh-58" value="" style="edgeStyle=orthogonalEdgeStyle;rounded=0;orthogonalLoop=1;jettySize=auto;html=1;fontSize=20;startArrow=classicThin;startFill=0;endArrow=classicThin;endFill=0;strokeWidth=3;" edge="1" parent="qnmHmgNk629mdP60JGwh-49" source="qnmHmgNk629mdP60JGwh-20" target="qnmHmgNk629mdP60JGwh-25">
          <mxGeometry relative="1" as="geometry" />
        </mxCell>
        <mxCell id="qnmHmgNk629mdP60JGwh-69" style="edgeStyle=none;rounded=0;orthogonalLoop=1;jettySize=auto;html=1;fontSize=20;startArrow=classicThin;startFill=0;endArrow=classicThin;endFill=0;strokeWidth=3;" edge="1" parent="qnmHmgNk629mdP60JGwh-49" source="qnmHmgNk629mdP60JGwh-20" target="qnmHmgNk629mdP60JGwh-14">
          <mxGeometry relative="1" as="geometry" />
        </mxCell>
        <mxCell id="qnmHmgNk629mdP60JGwh-20" value="&lt;font style=&quot;font-size: 20px&quot;&gt;开处方&lt;br&gt;&lt;/font&gt;" style="rounded=0;whiteSpace=wrap;html=1;flipH=1;" vertex="1" parent="qnmHmgNk629mdP60JGwh-49">
          <mxGeometry x="415" y="330" width="120" height="60" as="geometry" />
        </mxCell>
        <mxCell id="qnmHmgNk629mdP60JGwh-59" value="" style="edgeStyle=orthogonalEdgeStyle;rounded=0;orthogonalLoop=1;jettySize=auto;html=1;fontSize=20;startArrow=classicThin;startFill=0;endArrow=classicThin;endFill=0;strokeWidth=3;" edge="1" parent="qnmHmgNk629mdP60JGwh-49" source="qnmHmgNk629mdP60JGwh-21" target="qnmHmgNk629mdP60JGwh-26">
          <mxGeometry relative="1" as="geometry" />
        </mxCell>
        <mxCell id="qnmHmgNk629mdP60JGwh-21" value="&lt;font style=&quot;font-size: 20px&quot;&gt;配药&lt;br&gt;&lt;/font&gt;" style="rounded=0;whiteSpace=wrap;html=1;flipH=1;" vertex="1" parent="qnmHmgNk629mdP60JGwh-49">
          <mxGeometry x="588" y="330" width="120" height="60" as="geometry" />
        </mxCell>
        <mxCell id="qnmHmgNk629mdP60JGwh-60" value="" style="edgeStyle=orthogonalEdgeStyle;rounded=0;orthogonalLoop=1;jettySize=auto;html=1;fontSize=20;startArrow=classicThin;startFill=0;endArrow=classicThin;endFill=0;strokeWidth=3;" edge="1" parent="qnmHmgNk629mdP60JGwh-49" source="qnmHmgNk629mdP60JGwh-22" target="qnmHmgNk629mdP60JGwh-27">
          <mxGeometry relative="1" as="geometry" />
        </mxCell>
        <mxCell id="qnmHmgNk629mdP60JGwh-22" value="&lt;font style=&quot;font-size: 20px&quot;&gt;管理&lt;br&gt;&lt;/font&gt;" style="rounded=0;whiteSpace=wrap;html=1;flipH=1;" vertex="1" parent="qnmHmgNk629mdP60JGwh-49">
          <mxGeometry x="760" y="330" width="120" height="60" as="geometry" />
        </mxCell>
        <mxCell id="qnmHmgNk629mdP60JGwh-23" value="&lt;font style=&quot;font-size: 20px&quot;&gt;业务逻辑层&lt;br&gt;&lt;/font&gt;" style="rounded=0;whiteSpace=wrap;html=1;flipH=1;" vertex="1" parent="qnmHmgNk629mdP60JGwh-49">
          <mxGeometry x="70" y="460" width="120" height="60" as="geometry" />
        </mxCell>
        <mxCell id="qnmHmgNk629mdP60JGwh-71" style="edgeStyle=none;rounded=0;orthogonalLoop=1;jettySize=auto;html=1;fontSize=20;startArrow=classicThin;startFill=0;endArrow=classicThin;endFill=0;strokeWidth=3;" edge="1" parent="qnmHmgNk629mdP60JGwh-49" source="qnmHmgNk629mdP60JGwh-24" target="qnmHmgNk629mdP60JGwh-20">
          <mxGeometry relative="1" as="geometry" />
        </mxCell>
        <mxCell id="qnmHmgNk629mdP60JGwh-24" value="&lt;font style=&quot;font-size: 20px&quot;&gt;患者查询&lt;br&gt;&lt;/font&gt;" style="rounded=0;whiteSpace=wrap;html=1;flipH=1;" vertex="1" parent="qnmHmgNk629mdP60JGwh-49">
          <mxGeometry x="243" y="460" width="120" height="60" as="geometry" />
        </mxCell>
        <mxCell id="qnmHmgNk629mdP60JGwh-62" value="" style="edgeStyle=orthogonalEdgeStyle;rounded=0;orthogonalLoop=1;jettySize=auto;html=1;fontSize=20;startArrow=classicThin;startFill=0;endArrow=classicThin;endFill=0;strokeWidth=3;" edge="1" parent="qnmHmgNk629mdP60JGwh-49" source="qnmHmgNk629mdP60JGwh-25" target="qnmHmgNk629mdP60JGwh-32">
          <mxGeometry relative="1" as="geometry" />
        </mxCell>
        <mxCell id="qnmHmgNk629mdP60JGwh-73" style="edgeStyle=none;rounded=0;orthogonalLoop=1;jettySize=auto;html=1;fontSize=20;startArrow=classicThin;startFill=0;endArrow=classicThin;endFill=0;strokeWidth=3;" edge="1" parent="qnmHmgNk629mdP60JGwh-49" source="qnmHmgNk629mdP60JGwh-25" target="qnmHmgNk629mdP60JGwh-21">
          <mxGeometry relative="1" as="geometry" />
        </mxCell>
        <mxCell id="qnmHmgNk629mdP60JGwh-25" value="&lt;font style=&quot;font-size: 20px&quot;&gt;开处方&lt;br&gt;&lt;/font&gt;" style="rounded=0;whiteSpace=wrap;html=1;flipH=1;" vertex="1" parent="qnmHmgNk629mdP60JGwh-49">
          <mxGeometry x="415" y="460" width="120" height="60" as="geometry" />
        </mxCell>
        <mxCell id="qnmHmgNk629mdP60JGwh-63" value="" style="edgeStyle=orthogonalEdgeStyle;rounded=0;orthogonalLoop=1;jettySize=auto;html=1;fontSize=20;startArrow=classicThin;startFill=0;endArrow=classicThin;endFill=0;strokeWidth=3;" edge="1" parent="qnmHmgNk629mdP60JGwh-49" source="qnmHmgNk629mdP60JGwh-26" target="qnmHmgNk629mdP60JGwh-33">
          <mxGeometry relative="1" as="geometry" />
        </mxCell>
        <mxCell id="qnmHmgNk629mdP60JGwh-26" value="&lt;font style=&quot;font-size: 20px&quot;&gt;配药&lt;br&gt;&lt;/font&gt;" style="rounded=0;whiteSpace=wrap;html=1;flipH=1;" vertex="1" parent="qnmHmgNk629mdP60JGwh-49">
          <mxGeometry x="588" y="460" width="120" height="60" as="geometry" />
        </mxCell>
        <mxCell id="qnmHmgNk629mdP60JGwh-64" value="" style="edgeStyle=orthogonalEdgeStyle;rounded=0;orthogonalLoop=1;jettySize=auto;html=1;fontSize=20;startArrow=classicThin;startFill=0;endArrow=classicThin;endFill=0;strokeWidth=3;" edge="1" parent="qnmHmgNk629mdP60JGwh-49" source="qnmHmgNk629mdP60JGwh-27" target="qnmHmgNk629mdP60JGwh-34">
          <mxGeometry relative="1" as="geometry" />
        </mxCell>
        <mxCell id="qnmHmgNk629mdP60JGwh-27" value="&lt;font style=&quot;font-size: 20px&quot;&gt;管理&lt;br&gt;&lt;/font&gt;" style="rounded=0;whiteSpace=wrap;html=1;flipH=1;" vertex="1" parent="qnmHmgNk629mdP60JGwh-49">
          <mxGeometry x="760" y="460" width="120" height="60" as="geometry" />
        </mxCell>
        <mxCell id="qnmHmgNk629mdP60JGwh-30" value="&lt;font style=&quot;font-size: 20px&quot;&gt;数据层&lt;br&gt;&lt;/font&gt;" style="rounded=0;whiteSpace=wrap;html=1;" vertex="1" parent="qnmHmgNk629mdP60JGwh-49">
          <mxGeometry x="70" y="590" width="120" height="60" as="geometry" />
        </mxCell>
        <mxCell id="qnmHmgNk629mdP60JGwh-61" value="" style="edgeStyle=orthogonalEdgeStyle;rounded=0;orthogonalLoop=1;jettySize=auto;html=1;fontSize=20;startArrow=classicThin;startFill=0;endArrow=classicThin;endFill=0;strokeWidth=3;" edge="1" parent="qnmHmgNk629mdP60JGwh-49" source="qnmHmgNk629mdP60JGwh-31" target="qnmHmgNk629mdP60JGwh-24">
          <mxGeometry relative="1" as="geometry" />
        </mxCell>
        <mxCell id="qnmHmgNk629mdP60JGwh-74" style="edgeStyle=none;rounded=0;orthogonalLoop=1;jettySize=auto;html=1;fontSize=20;startArrow=classicThin;startFill=0;endArrow=classicThin;endFill=0;strokeWidth=3;" edge="1" parent="qnmHmgNk629mdP60JGwh-49" source="qnmHmgNk629mdP60JGwh-31" target="qnmHmgNk629mdP60JGwh-25">
          <mxGeometry relative="1" as="geometry" />
        </mxCell>
        <mxCell id="qnmHmgNk629mdP60JGwh-31" value="&lt;font style=&quot;font-size: 20px&quot;&gt;患者数据&lt;br&gt;&lt;/font&gt;" style="rounded=0;whiteSpace=wrap;html=1;" vertex="1" parent="qnmHmgNk629mdP60JGwh-49">
          <mxGeometry x="243" y="590" width="120" height="60" as="geometry" />
        </mxCell>
        <mxCell id="qnmHmgNk629mdP60JGwh-75" style="edgeStyle=none;rounded=0;orthogonalLoop=1;jettySize=auto;html=1;fontSize=20;startArrow=classicThin;startFill=0;endArrow=classicThin;endFill=0;strokeWidth=3;" edge="1" parent="qnmHmgNk629mdP60JGwh-49" source="qnmHmgNk629mdP60JGwh-32" target="qnmHmgNk629mdP60JGwh-26">
          <mxGeometry relative="1" as="geometry" />
        </mxCell>
        <mxCell id="qnmHmgNk629mdP60JGwh-32" value="&lt;font style=&quot;font-size: 20px&quot;&gt;处方数据&lt;br&gt;&lt;/font&gt;" style="rounded=0;whiteSpace=wrap;html=1;" vertex="1" parent="qnmHmgNk629mdP60JGwh-49">
          <mxGeometry x="415" y="590" width="120" height="60" as="geometry" />
        </mxCell>
        <mxCell id="qnmHmgNk629mdP60JGwh-33" value="&lt;font style=&quot;font-size: 20px&quot;&gt;药物数据&lt;br&gt;&lt;/font&gt;" style="rounded=0;whiteSpace=wrap;html=1;" vertex="1" parent="qnmHmgNk629mdP60JGwh-49">
          <mxGeometry x="588" y="590" width="120" height="60" as="geometry" />
        </mxCell>
        <mxCell id="qnmHmgNk629mdP60JGwh-34" value="&lt;font style=&quot;font-size: 20px&quot;&gt;角色数据&lt;br&gt;&lt;/font&gt;" style="rounded=0;whiteSpace=wrap;html=1;" vertex="1" parent="qnmHmgNk629mdP60JGwh-49">
          <mxGeometry x="760" y="590" width="120" height="60" as="geometry" />
        </mxCell>
        <mxCell id="qnmHmgNk629mdP60JGwh-79" value="" style="edgeStyle=none;rounded=0;orthogonalLoop=1;jettySize=auto;html=1;fontSize=56;startArrow=classicThin;startFill=0;endArrow=classicThin;endFill=0;strokeWidth=3;" edge="1" parent="1" source="qnmHmgNk629mdP60JGwh-76" target="qnmHmgNk629mdP60JGwh-78">
          <mxGeometry relative="1" as="geometry" />
        </mxCell>
        <mxCell id="qnmHmgNk629mdP60JGwh-76" value="&lt;font style=&quot;font-size: 56px&quot;&gt;Mybatis&lt;/font&gt;" style="rounded=0;whiteSpace=wrap;html=1;fontSize=20;" vertex="1" parent="1">
          <mxGeometry x="330" y="770" width="400" height="150" as="geometry" />
        </mxCell>
        <mxCell id="qnmHmgNk629mdP60JGwh-78" value="&lt;span style=&quot;font-size: 56px&quot;&gt;Mysql&lt;/span&gt;" style="rounded=0;whiteSpace=wrap;html=1;fontSize=20;" vertex="1" parent="1">
          <mxGeometry x="330" y="1000" width="400" height="150" as="geometry" />
        </mxCell>
      </root>
    </mxGraphModel>
  </diagram>
</mxfile>
